<?xml version="1.0" encoding="utf-8"?>
<svg id="master-artboard" viewBox="0 0 302.64361572265625 296.9483337402344" version="1.1" xmlns="http://www.w3.org/2000/svg" x="0px" y="0px" style="enable-background:new 0 0 1400 980;" width="302.64361572265625px" height="296.9483337402344px"><rect id="ee-background" x="0" y="0" width="302.64361572265625" height="296.9483337402344" style="fill: white; fill-opacity: 0; pointer-events: none;" transform="matrix(1, 0, 0, 1, -2, 0)"/><g transform="matrix(-1.8283531665802002, -0.5551278591156006, 0.5551278591156006, -1.8283531665802002, 1338.5958518981934, 731.2415771484375)"><g id="Layer_2" transform="matrix(1, 0, 0, 1, 0, 0)">
	<g id="Layer_1-2">
		<path class="st0" d="M652,46c27.6,0,50,22.4,50,50s-22.4,50-50,50s-50-22.4-50-50S624.4,46,652,46z" style="fill: rgb(71, 215, 255);"/>
	</g>
</g></g><g transform="matrix(-2.589019775390625, -0.7860827445983887, 0.7860827445983887, -2.589019775390625, 908.2068748474121, 1034.36328125)"><g id="Layer_2_5_" transform="matrix(1, 0, 0, 1, 0, 0)">
	<g id="Layer_1-2_5_">
		<path class="st0" d="M355.7,185.2c20.2,7.9,30.5,31.1,22.6,51.2c-8,20.1-30.7,29.9-50.8,22c-2.3-0.9-4.4-2.1-6.5-3.4&#10;&#9;&#9;&#9;c11.8,25.2,41.9,36.1,67.1,24.2c11.6-5.4,20.7-15.1,25.4-27c10-25.9-2.9-54.9-28.7-64.9C375.5,183.8,365.4,183,355.7,185.2z" style="fill: rgb(139, 0, 0);"/>
	</g>
</g></g></svg>